<svg width="197" height="643" xmlns="http://www.w3.org/2000/svg" clip-rule="evenodd" fill-rule="evenodd" image-rendering="optimizeQuality" text-rendering="geometricPrecision" shape-rendering="geometricPrecision">

 <g>
  <title>Layer 1</title>
  <path transform="rotate(-50.3202 134.659 341.281)" stroke="null" id="svg_1" d="m-17.28496,498.22814c10.427,-14.041 21.175,-28.936 25.608,-36.762c11.17,-19.56 38.573,-22.839 39.743,-14.409c0.464,3.338 -5.327,14.432 -12.987,27.255c-17.661,29.563 -47.32,74.932 -76.335,93.533c-6.596,4.229 -13.085,6.799 -18.889,6.415c-4.445,-0.293 -7.708,-2.788 -9.367,-8.266c-15.214,-39.597 -31.854,-74.427 -50.414,-102.836c-1.346,-2.42 -1.695,-4.619 -1.203,-6.63c1.64,-6.713 15.648,-12.587 21.59,-14.458c8.554,-2.694 13.591,-1.685 18.339,5.18c9.347,13.517 16.23,29.001 22.912,44.549c7.208,-111.915 54.801,-204.033 126.755,-269.945c79.605,-72.92 188.991,-113.678 306.386,-113.59c6.723,0.005 10.497,0.578 13.313,4.082c2.543,3.164 2.712,7.142 2.349,14.119c-0.564,10.815 -2.624,16.829 -9.196,20.809c-5.621,3.404 -13.818,4.255 -27.424,5.082c-4.014,0.243 -8.023,0.617 -12.038,0.884c-98.579,6.55 -189.551,45.369 -255.347,110.108c-59.538,58.58 -98.481,138.446 -103.795,234.88z"/>
 </g>
</svg>